<?xml version="1.0" standalone="no"?>
<!DOCTYPE svg PUBLIC "-//W3C//DTD SVG 20010904//EN"
 "http://www.w3.org/TR/2001/REC-SVG-20010904/DTD/svg10.dtd">
<svg version="1.0" xmlns="http://www.w3.org/2000/svg"
 width="256.000000pt" height="256.000000pt" viewBox="0 0 256.000000 256.000000"
 preserveAspectRatio="xMidYMid meet">
<metadata>
Created by potrace 1.14, written by Peter Selinger 2001-2017
</metadata>
<g transform="translate(0.000000,256.000000) scale(0.100000,-0.100000)"
fill="#000000" stroke="none">
<path d="M1143 2171 c-225 -36 -438 -163 -574 -343 -131 -175 -193 -371 -180
-573 0 -11 1 -45 1 -76 -1 -115 79 -319 173 -444 323 -430 962 -478 1343 -100
110 109 181 223 230 372 40 124 50 337 20 465 -77 330 -311 579 -633 674 -97
28 -282 40 -380 25z"/>
</g>
</svg>
